<?xml version="1.0" encoding="utf-8"?>
<!-- Generator: Adobe Illustrator 22.1.0, SVG Export Plug-In . SVG Version: 6.00 Build 0)  -->
<svg version="1.0" id="Recurso_8h" xmlns="http://www.w3.org/2000/svg" xmlns:xlink="http://www.w3.org/1999/xlink" x="0px" y="0px"
	 viewBox="0 0 688 201.8" style="enable-background:new 0 0 688 201.8;" xml:space="preserve">
<style type="text/css">
	.st0{fill:#F3F3F3;}
	.st1{fill:none;stroke:#E0E0E0;stroke-width:2;}
	.st2{opacity:0.2;fill:#1E1E1E;}
	.st3{fill:#374172;}
	.st4{fill:#3DDB96;}
</style>
<path id="Path_287" class="st0" d="M40.2,15L10,50.8L86.1,193h521.4l66.1-142.2l-23-35.8L40.2,15z"/>
<g id="lineas" transform="translate(-649.5 -174.5)">
	<line id="Line_9" class="st1" x1="685" y1="229.9" x2="1302" y2="229.9"/>
	<line id="Line_18" class="st1" x1="685" y1="216.9" x2="1302" y2="216.9"/>
	<line id="Line_10" class="st1" x1="685" y1="242.9" x2="1302" y2="242.9"/>
	<line id="Line_11" class="st1" x1="685" y1="255.9" x2="1302" y2="255.9"/>
	<line id="Line_12" class="st1" x1="685" y1="268.9" x2="1302" y2="268.9"/>
	<line id="Line_13" class="st1" x1="685" y1="281.9" x2="1302" y2="281.9"/>
	<line id="Line_14" class="st1" x1="708" y1="294.9" x2="1281" y2="294.9"/>
	<line id="Line_15" class="st1" x1="708" y1="307.9" x2="1281" y2="307.9"/>
	<line id="Line_16" class="st1" x1="708" y1="320.9" x2="1281" y2="320.9"/>
	<line id="Line_17" class="st1" x1="708" y1="333.9" x2="1281" y2="333.9"/>
</g>
<path class="st2" d="M490,195.2c-36.9-5.2-25.4-8.4-25.5-8.7c-9.6-24.8,107.2-27.9,116.5-31.9c17.6-7.6,26.4-24.7,33.6-41.4
	c8.4-19.5,16.9-38.8,24-58.8c1.8-5.3,2.7-11.4-0.1-16.2c-3.7-6.4-12.1-8.1-19.5-8.4c-7.4-0.3-15.5-0.1-21.3-4.6
	c-2.8-2.2-4.7-6.6-2.1-9c0.9-0.9,2.1-1.2,3.3-1.5c16.4-3.8,35.8-0.2,52.4,1.3c9.6,0.9,16.5,5,16.6,15.5
	c0.2,21.4-12.8,46.6-19.2,66.8c-2.4,7.6-17.2,70.1-22.5,70.9c-33.9,5.1-71.3,33.9-104.1,23.9C519.9,192.5,492.2,195.5,490,195.2z"/>
<path class="st2" d="M107.8,30.8c0,0-61.6,13.2-45.2,55.2s51.8,98.2,51.8,98.2S61.1,196.6,59.8,165s-44-136.5-44-136.5l92-13.2V30.8
	z"/>
<g id="BACKGROUND" transform="translate(0)">
	<path id="Path_274" class="st3" d="M589.3,201.8H98.7c-21.2,0-40.4-11.7-47.8-29.1L3.2,60c-5.8-13.7-3.6-29,6-40.9S34.3,0,51,0
		h586.1c16.7,0,32.3,7.1,41.8,19.1s11.8,27.2,6,40.9l-47.7,112.7C629.7,190.1,610.5,201.8,589.3,201.8z M51,30.8
		c-5-0.1-9.7,2.1-12.9,5.9c-3,3.5-3.7,8.4-1.8,12.6L83.9,162c2.3,5.4,8.2,9,14.7,9h490.6c6.5,0,12.5-3.6,14.7-9l47.7-112.7
		c1.8-4.2,1.1-9.1-1.8-12.6c-3.2-3.8-7.9-6-12.9-5.9L51,30.8z"/>
</g>
<g id="BACKGROUND_1_">
	<ellipse id="Ellipse_44" class="st4" cx="69.2" cy="15.2" rx="6.6" ry="6.6"/>
	<ellipse id="Ellipse_45" class="st4" cx="114.4" cy="15.2" rx="6.6" ry="6.6"/>
	<ellipse id="Ellipse_46" class="st4" cx="165.4" cy="15.2" rx="6.6" ry="6.6"/>
	<ellipse id="Ellipse_47" class="st4" cx="216.3" cy="15.2" rx="6.6" ry="6.6"/>
	<ellipse id="Ellipse_48" class="st4" cx="267.3" cy="15.2" rx="6.6" ry="6.6"/>
	<ellipse id="Ellipse_49" class="st4" cx="318.2" cy="15.2" rx="6.6" ry="6.6"/>
	<ellipse id="Ellipse_50" class="st4" cx="369.2" cy="15.2" rx="6.6" ry="6.6"/>
	<ellipse id="Ellipse_51" class="st4" cx="420.1" cy="15.2" rx="6.6" ry="6.6"/>
	<ellipse id="Ellipse_52" class="st4" cx="471.1" cy="15.2" rx="6.6" ry="6.6"/>
	<ellipse id="Ellipse_53" class="st4" cx="522" cy="15.2" rx="6.6" ry="6.6"/>
	<ellipse id="Ellipse_54" class="st4" cx="573" cy="15.2" rx="6.6" ry="6.6"/>
	<ellipse id="Ellipse_55" class="st4" cx="624" cy="15.2" rx="6.6" ry="6.6"/>
	<ellipse id="Ellipse_56" class="st4" cx="665.6" cy="27.3" rx="6.6" ry="6.6"/>
	<ellipse id="Ellipse_57" class="st4" cx="22.4" cy="28.5" rx="6.6" ry="6.6"/>
	<ellipse id="Ellipse_58" class="st4" cx="648.3" cy="102.1" rx="6.6" ry="6.6"/>
	<ellipse id="Ellipse_59" class="st4" cx="42.2" cy="104.4" rx="6.6" ry="6.6"/>
	<ellipse id="Ellipse_60" class="st4" cx="662.2" cy="65.3" rx="6.6" ry="6.6"/>
	<ellipse id="Ellipse_61" class="st4" cx="25.8" cy="66.1" rx="6.6" ry="6.6"/>
	<ellipse id="Ellipse_62" class="st4" cx="611.6" cy="177.6" rx="6.6" ry="6.6"/>
	<ellipse id="Ellipse_63" class="st4" cx="78" cy="177.6" rx="6.6" ry="6.6"/>
	<ellipse id="Ellipse_64" class="st4" cx="630.5" cy="141.4" rx="6.6" ry="6.6"/>
	<ellipse id="Ellipse_65" class="st4" cx="57.4" cy="142.3" rx="6.6" ry="6.6"/>
	<ellipse id="Ellipse_66" class="st4" cx="114.4" cy="186.5" rx="6.6" ry="6.6"/>
	<ellipse id="Ellipse_67" class="st4" cx="165.4" cy="186.5" rx="6.6" ry="6.6"/>
	<ellipse id="Ellipse_68" class="st4" cx="216.3" cy="186.5" rx="6.6" ry="6.6"/>
	<ellipse id="Ellipse_69" class="st4" cx="267.3" cy="186.5" rx="6.6" ry="6.6"/>
	<ellipse id="Ellipse_70" class="st4" cx="318.2" cy="186.5" rx="6.6" ry="6.6"/>
	<ellipse id="Ellipse_71" class="st4" cx="369.2" cy="186.5" rx="6.6" ry="6.6"/>
	<ellipse id="Ellipse_72" class="st4" cx="420.1" cy="186.5" rx="6.6" ry="6.6"/>
	<ellipse id="Ellipse_73" class="st4" cx="471.1" cy="186.5" rx="6.6" ry="6.6"/>
	<ellipse id="Ellipse_74" class="st4" cx="522" cy="186.5" rx="6.6" ry="6.6"/>
	<ellipse id="Ellipse_75" class="st4" cx="573" cy="186.5" rx="6.6" ry="6.6"/>
</g>
</svg>
